<svg width="24" height="25" viewBox="0 0 24 25" fill="none" xmlns="http://www.w3.org/2000/svg">
<mask id="mask0_1026_3490" style="mask-type:luminance" maskUnits="userSpaceOnUse" x="3" y="2" width="18" height="21">
<path fill-rule="evenodd" clip-rule="evenodd" d="M3.00024 2.51172H20.0529V22.3652H3.00024V2.51172Z" fill="white"/>
</mask>
<g mask="url(#mask0_1026_3490)">
<path fill-rule="evenodd" clip-rule="evenodd" d="M7.57335 4.01172C5.91635 4.01172 4.54035 5.35372 4.50135 7.00872V17.7037C4.46435 19.4167 5.81435 20.8277 7.51035 20.8657H15.5743C17.2433 20.7967 18.5653 19.4097 18.5533 17.7097V8.83972L13.9183 4.01172H7.58535H7.57335ZM7.58535 22.3657H7.47635C4.95435 22.3087 2.94635 20.2107 3.00135 17.6877V6.99072C3.05935 4.50972 5.10835 2.51172 7.57135 2.51172H7.58835H14.2383C14.4423 2.51172 14.6373 2.59472 14.7793 2.74172L19.8443 8.01872C19.9783 8.15772 20.0533 8.34472 20.0533 8.53772V17.7037C20.0713 20.2127 18.1173 22.2627 15.6043 22.3647L7.58535 22.3657Z" fill="black"/>
</g>
<path fill-rule="evenodd" clip-rule="evenodd" d="M19.2985 9.48431H16.5435C14.7135 9.47931 13.2255 7.98731 13.2255 6.15931V3.25031C13.2255 2.83631 13.5615 2.50031 13.9755 2.50031C14.3895 2.50031 14.7255 2.83631 14.7255 3.25031V6.15931C14.7255 7.16331 15.5425 7.98131 16.5455 7.98431H19.2985C19.7125 7.98431 20.0485 8.32031 20.0485 8.73431C20.0485 9.14831 19.7125 9.48431 19.2985 9.48431Z" fill="black"/>
<path fill-rule="evenodd" clip-rule="evenodd" d="M13.7887 16.6084H8.38867C7.97467 16.6084 7.63867 16.2724 7.63867 15.8584C7.63867 15.4444 7.97467 15.1084 8.38867 15.1084H13.7887C14.2027 15.1084 14.5387 15.4444 14.5387 15.8584C14.5387 16.2724 14.2027 16.6084 13.7887 16.6084Z" fill="black"/>
<path fill-rule="evenodd" clip-rule="evenodd" d="M11.7437 12.8564H8.3877C7.9737 12.8564 7.6377 12.5204 7.6377 12.1064C7.6377 11.6924 7.9737 11.3564 8.3877 11.3564H11.7437C12.1577 11.3564 12.4937 11.6924 12.4937 12.1064C12.4937 12.5204 12.1577 12.8564 11.7437 12.8564Z" fill="black"/>
</svg>
