<svg width="16" height="16" viewBox="0 0 16 16" fill="none" xmlns="http://www.w3.org/2000/svg">
<g clip-path="url(#clip0_1026_6716)">
<rect y="0.449219" width="15.1008" height="15.1008" rx="3.7752" fill="#4F4F4F"/>
<path d="M11.911 4.79653C11.8549 4.74001 11.7882 4.69515 11.7148 4.66454C11.6413 4.63392 11.5625 4.61816 11.4829 4.61816C11.4033 4.61816 11.3244 4.63392 11.251 4.66454C11.1775 4.69515 11.1108 4.74001 11.0547 4.79653L6.56252 9.29478L4.67518 7.40141C4.61698 7.34519 4.54827 7.30098 4.47299 7.27132C4.3977 7.24165 4.31731 7.2271 4.2364 7.2285C4.15549 7.2299 4.07565 7.24722 4.00144 7.27947C3.92722 7.31173 3.86009 7.35829 3.80387 7.41649C3.74765 7.47469 3.70344 7.54339 3.67377 7.61868C3.6441 7.69396 3.62955 7.77436 3.63095 7.85527C3.63235 7.93617 3.64967 8.01601 3.68193 8.09023C3.71419 8.16444 3.76074 8.23158 3.81894 8.2878L6.1344 10.6033C6.19045 10.6598 6.25715 10.7046 6.33062 10.7352C6.4041 10.7659 6.48292 10.7816 6.56252 10.7816C6.64212 10.7816 6.72093 10.7659 6.79441 10.7352C6.86789 10.7046 6.93458 10.6598 6.99064 10.6033L11.911 5.68291C11.9722 5.62645 12.021 5.55792 12.0544 5.48164C12.0879 5.40536 12.1051 5.32299 12.1051 5.23972C12.1051 5.15645 12.0879 5.07407 12.0544 4.9978C12.021 4.92152 11.9722 4.85299 11.911 4.79653V4.79653Z" fill="white"/>
</g>
<rect x="0.6292" y="1.07842" width="13.8424" height="13.8424" rx="3.146" stroke="#4F4F4F" stroke-width="1.2584"/>
<defs>
<clipPath id="clip0_1026_6716">
<rect y="0.449219" width="15.1008" height="15.1008" rx="3.7752" fill="white"/>
</clipPath>
</defs>
</svg>
