<svg width="24" height="25" viewBox="0 0 24 25" fill="none" xmlns="http://www.w3.org/2000/svg">
<mask id="mask0_1026_3503" style="mask-type:luminance" maskUnits="userSpaceOnUse" x="1" y="1" width="22" height="22">
<path fill-rule="evenodd" clip-rule="evenodd" d="M1 1.50031H22.493V22.9941H1V1.50031Z" fill="white"/>
</mask>
<g mask="url(#mask0_1026_3503)">
<path fill-rule="evenodd" clip-rule="evenodd" d="M6.10844 20.1753C6.68844 20.1753 7.23544 20.3953 7.81444 20.6283C11.3614 22.2683 15.5564 21.5223 18.2894 18.7903C21.8954 15.1823 21.8954 9.3133 18.2894 5.7073C16.5434 3.96131 14.2214 3.00031 11.7494 3.00031C9.27644 3.00031 6.95344 3.96231 5.20844 5.70831C2.47444 8.44031 1.73044 12.6353 3.35544 16.1483C3.58944 16.7273 3.81544 17.2913 3.81544 17.8773C3.81544 18.4623 3.61444 19.0513 3.43744 19.5713C3.29144 19.9993 3.07044 20.6453 3.21244 20.7873C3.35144 20.9313 4.00144 20.7043 4.43044 20.5573C4.94544 20.3813 5.52944 20.1793 6.10844 20.1753ZM11.7244 22.9943C10.1964 22.9943 8.65844 22.6713 7.21944 22.0053C6.79544 21.8353 6.39844 21.6753 6.11344 21.6753C5.78544 21.6773 5.34444 21.8293 4.91844 21.9763C4.04444 22.2763 2.95644 22.6503 2.15144 21.8483C1.34944 21.0453 1.71944 19.9603 2.01744 19.0873C2.16444 18.6573 2.31544 18.2133 2.31544 17.8773C2.31544 17.6013 2.18244 17.2493 1.97844 16.7423C0.105437 12.6973 0.971437 7.82231 4.14844 4.64731C6.17644 2.61831 8.87544 1.50031 11.7484 1.50031C14.6214 1.50031 17.3214 2.61731 19.3494 4.64631C23.5414 8.8383 23.5414 15.6583 19.3494 19.8503C17.2944 21.9063 14.5274 22.9943 11.7244 22.9943Z" fill="black"/>
</g>
<path fill-rule="evenodd" clip-rule="evenodd" d="M15.6963 13.663C15.1443 13.663 14.6923 13.216 14.6923 12.663C14.6923 12.11 15.1353 11.663 15.6873 11.663H15.6963C16.2483 11.663 16.6963 12.11 16.6963 12.663C16.6963 13.216 16.2483 13.663 15.6963 13.663Z" fill="black"/>
<path fill-rule="evenodd" clip-rule="evenodd" d="M11.6875 13.663C11.1355 13.663 10.6835 13.216 10.6835 12.663C10.6835 12.11 11.1255 11.663 11.6785 11.663H11.6875C12.2395 11.663 12.6875 12.11 12.6875 12.663C12.6875 13.216 12.2395 13.663 11.6875 13.663Z" fill="black"/>
<path fill-rule="evenodd" clip-rule="evenodd" d="M7.67832 13.663C7.12632 13.663 6.67432 13.216 6.67432 12.663C6.67432 12.11 7.11732 11.663 7.66932 11.663H7.67832C8.23032 11.663 8.67832 12.11 8.67832 12.663C8.67832 13.216 8.23032 13.663 7.67832 13.663Z" fill="black"/>
</svg>
