<svg width="20" height="20" viewBox="0 0 20 20" fill="none" xmlns="http://www.w3.org/2000/svg">
<mask id="mask0_1095_9078" style="mask-type:luminance" maskUnits="userSpaceOnUse" x="2" y="2" width="15" height="17">
<path fill-rule="evenodd" clip-rule="evenodd" d="M2.66693 2.5H16.9841V18.283H2.66693V2.5Z" fill="white"/>
</mask>
<g mask="url(#mask0_1095_9078)">
<path fill-rule="evenodd" clip-rule="evenodd" d="M11.9255 4.18054L4.07966 13.993C3.93716 14.1714 3.88466 14.4014 3.93716 14.6222L4.50466 17.0264L7.03716 16.9947C7.27799 16.9922 7.50049 16.8847 7.64799 16.7014C10.3288 13.3472 15.4397 6.9522 15.5847 6.7647C15.7213 6.54304 15.7747 6.2297 15.703 5.92804C15.6297 5.61887 15.4372 5.35637 15.1597 5.18887C15.1005 5.14804 13.6963 4.05804 13.653 4.02387C13.1247 3.60054 12.3538 3.67387 11.9255 4.18054ZM4.01133 18.283C3.72216 18.283 3.47049 18.0847 3.40299 17.8022L2.72049 14.9097C2.57966 14.3105 2.71966 13.6922 3.10383 13.2122L10.9538 3.39387C10.9572 3.39054 10.9597 3.38637 10.963 3.38304C11.8238 2.35387 13.3805 2.2022 14.4305 3.0447C14.4722 3.0772 15.8663 4.16054 15.8663 4.16054C16.373 4.4622 16.7688 5.00137 16.9188 5.6397C17.068 6.27137 16.9597 6.92304 16.6122 7.47387C16.5863 7.5147 16.5638 7.5497 8.62383 17.483C8.24133 17.9597 7.66799 18.2372 7.05216 18.2447L4.01966 18.283H4.01133Z" fill="black"/>
</g>
<path fill-rule="evenodd" clip-rule="evenodd" d="M14.5195 9.73698C14.3862 9.73698 14.2528 9.69448 14.1387 9.60782L9.59534 6.11782C9.32201 5.90782 9.27034 5.51615 9.48034 5.24115C9.69117 4.96782 10.0828 4.91698 10.357 5.12698L14.9012 8.61615C15.1745 8.82615 15.2262 9.21865 15.0153 9.49282C14.8928 9.65282 14.707 9.73698 14.5195 9.73698Z" fill="black"/>
</svg>
