<svg width="18" height="18" viewBox="0 0 18 18" fill="none" xmlns="http://www.w3.org/2000/svg">
<path fill-rule="evenodd" clip-rule="evenodd" d="M8.99969 7.23096C8.00219 7.23096 7.19144 8.04246 7.19144 9.03996C7.19144 10.0367 8.00219 10.8475 8.99969 10.8475C9.99719 10.8475 10.8087 10.0367 10.8087 9.03996C10.8087 8.04246 9.99719 7.23096 8.99969 7.23096ZM8.99969 11.9725C7.38194 11.9725 6.06644 10.657 6.06644 9.03996C6.06644 7.42221 7.38194 6.10596 8.99969 6.10596C10.6174 6.10596 11.9337 7.42221 11.9337 9.03996C11.9337 10.657 10.6174 11.9725 8.99969 11.9725Z" fill="#232323"/>
<mask id="mask0_41_6943" style="mask-type:luminance" maskUnits="userSpaceOnUse" x="1" y="3" width="16" height="13">
<path fill-rule="evenodd" clip-rule="evenodd" d="M1.50011 3.00012H16.5V15.0789H1.50011V3.00012Z" fill="white"/>
</mask>
<g mask="url(#mask0_41_6943)">
<path fill-rule="evenodd" clip-rule="evenodd" d="M2.67742 9.03932C4.07242 12.1211 6.42217 13.9533 8.99992 13.9541C11.5777 13.9533 13.9274 12.1211 15.3224 9.03932C13.9274 5.95832 11.5777 4.12607 8.99992 4.12532C6.42292 4.12607 4.07242 5.95832 2.67742 9.03932ZM9.00142 15.0791H8.99842H8.99767C5.89567 15.0768 3.11017 12.9026 1.54567 9.26132C1.48492 9.11957 1.48492 8.95907 1.54567 8.81732C3.11017 5.17682 5.89642 3.00257 8.99767 3.00032C8.99917 2.99957 8.99917 2.99957 8.99992 3.00032C9.00142 2.99957 9.00142 2.99957 9.00217 3.00032C12.1042 3.00257 14.8897 5.17682 16.4542 8.81732C16.5157 8.95907 16.5157 9.11957 16.4542 9.26132C14.8904 12.9026 12.1042 15.0768 9.00217 15.0791H9.00142Z" fill="#232323"/>
</g>
</svg>
