<svg width="25" height="24" viewBox="0 0 25 24" fill="none" xmlns="http://www.w3.org/2000/svg">
<path fill-rule="evenodd" clip-rule="evenodd" d="M11.8192 22H6.93324C4.48924 22 2.50024 20.011 2.50024 17.565V6.436C2.50024 3.99 4.48924 2 6.93324 2H11.8082C14.2542 2 16.2442 3.99 16.2442 6.436V7.368C16.2442 7.782 15.9082 8.118 15.4942 8.118C15.0802 8.118 14.7442 7.782 14.7442 7.368V6.436C14.7442 4.816 13.4272 3.5 11.8082 3.5H6.93324C5.31624 3.5 4.00024 4.816 4.00024 6.436V17.565C4.00024 19.184 5.31624 20.5 6.93324 20.5H11.8192C13.4312 20.5 14.7442 19.188 14.7442 17.576V16.633C14.7442 16.219 15.0802 15.883 15.4942 15.883C15.9082 15.883 16.2442 16.219 16.2442 16.633V17.576C16.2442 20.016 14.2582 22 11.8192 22Z" fill="black"/>
<mask id="mask0_1026_3544" style="mask-type:luminance" maskUnits="userSpaceOnUse" x="9" y="11" width="15" height="2">
<path fill-rule="evenodd" clip-rule="evenodd" d="M9.49609 11.25H23.037V12.75H9.49609V11.25Z" fill="white"/>
</mask>
<g mask="url(#mask0_1026_3544)">
<path fill-rule="evenodd" clip-rule="evenodd" d="M22.2871 12.75H10.2461C9.83209 12.75 9.49609 12.414 9.49609 12C9.49609 11.586 9.83209 11.25 10.2461 11.25H22.2871C22.7011 11.25 23.0371 11.586 23.0371 12C23.0371 12.414 22.7011 12.75 22.2871 12.75Z" fill="black"/>
</g>
<mask id="mask1_1026_3544" style="mask-type:luminance" maskUnits="userSpaceOnUse" x="18" y="8" width="6" height="8">
<path fill-rule="evenodd" clip-rule="evenodd" d="M18.6096 8.33527H23.037V15.666H18.6096V8.33527Z" fill="white"/>
</mask>
<g mask="url(#mask1_1026_3544)">
<path fill-rule="evenodd" clip-rule="evenodd" d="M19.3594 15.666C19.1674 15.666 18.9744 15.593 18.8284 15.445C18.5364 15.151 18.5374 14.677 18.8304 14.385L21.2244 12L18.8304 9.61602C18.5374 9.32402 18.5354 8.85002 18.8284 8.55602C19.1204 8.26202 19.5944 8.26202 19.8884 8.55402L22.8164 11.469C22.9584 11.609 23.0374 11.801 23.0374 12C23.0374 12.199 22.9584 12.391 22.8164 12.531L19.8884 15.447C19.7424 15.593 19.5504 15.666 19.3594 15.666Z" fill="black"/>
</g>
</svg>
