<svg width="24" height="25" viewBox="0 0 24 25" fill="none" xmlns="http://www.w3.org/2000/svg">
<path fill-rule="evenodd" clip-rule="evenodd" d="M15.7158 17.4737H8.49585C8.08185 17.4737 7.74585 17.1377 7.74585 16.7237C7.74585 16.3097 8.08185 15.9737 8.49585 15.9737H15.7158C16.1298 15.9737 16.4658 16.3097 16.4658 16.7237C16.4658 17.1377 16.1298 17.4737 15.7158 17.4737Z" fill="black"/>
<path fill-rule="evenodd" clip-rule="evenodd" d="M15.7158 13.2872H8.49585C8.08185 13.2872 7.74585 12.9512 7.74585 12.5372C7.74585 12.1232 8.08185 11.7872 8.49585 11.7872H15.7158C16.1298 11.7872 16.4658 12.1232 16.4658 12.5372C16.4658 12.9512 16.1298 13.2872 15.7158 13.2872Z" fill="black"/>
<path fill-rule="evenodd" clip-rule="evenodd" d="M11.2505 9.11041H8.49548C8.08148 9.11041 7.74548 8.77441 7.74548 8.36041C7.74548 7.94641 8.08148 7.61041 8.49548 7.61041H11.2505C11.6645 7.61041 12.0005 7.94641 12.0005 8.36041C12.0005 8.77441 11.6645 9.11041 11.2505 9.11041Z" fill="black"/>
<mask id="mask0_1026_3445" style="mask-type:luminance" maskUnits="userSpaceOnUse" x="3" y="2" width="19" height="21">
<path fill-rule="evenodd" clip-rule="evenodd" d="M3 2.50021H21.1647V22.41H3V2.50021Z" fill="white"/>
</mask>
<g mask="url(#mask0_1026_3445)">
<path fill-rule="evenodd" clip-rule="evenodd" d="M15.9088 4L8.21976 4.004C5.89176 4.018 4.49976 5.458 4.49976 7.857V17.053C4.49976 19.468 5.90476 20.91 8.25576 20.91L15.9448 20.907C18.2728 20.893 19.6648 19.451 19.6648 17.053V7.857C19.6648 5.442 18.2608 4 15.9088 4ZM8.25676 22.41C5.11276 22.41 2.99976 20.257 2.99976 17.053V7.857C2.99976 4.624 5.04676 2.523 8.21476 2.504L15.9078 2.5H15.9088C19.0528 2.5 21.1648 4.653 21.1648 7.857V17.053C21.1648 20.285 19.1178 22.387 15.9498 22.407L8.25676 22.41Z" fill="black"/>
</g>
</svg>
