<svg width="18" height="18" viewBox="0 0 18 18" fill="none" xmlns="http://www.w3.org/2000/svg">
<path fill-rule="evenodd" clip-rule="evenodd" d="M13.331 12.0715L16.8859 15.6313C17.0447 15.8079 17.0368 16.0783 16.8681 16.2454L16.246 16.8684C16.1626 16.9526 16.049 17 15.9305 17C15.812 17 15.6985 16.9526 15.615 16.8684L12.0601 13.3085C11.9618 13.21 11.8726 13.1028 11.7935 12.9881L11.127 12.0982C10.0241 12.9801 8.6546 13.4602 7.24327 13.4598C4.33502 13.4699 1.80787 11.461 1.15795 8.62231C0.508034 5.78365 1.90881 2.87288 4.53098 1.61326C7.15315 0.353637 10.2969 1.08134 12.101 3.36555C13.9052 5.64977 13.8882 8.88086 12.0601 11.1459L12.9489 11.76C13.0877 11.849 13.2159 11.9535 13.331 12.0715ZM2.79987 7.2291C2.79987 9.68666 4.78932 11.6789 7.24344 11.6789C8.42194 11.6789 9.55218 11.2101 10.3855 10.3756C11.2188 9.54109 11.687 8.40926 11.687 7.2291C11.687 4.77154 9.69755 2.7793 7.24344 2.7793C4.78932 2.7793 2.79987 4.77154 2.79987 7.2291Z" fill="black"/>
<path d="M16.8859 15.6313L17.1648 15.3806L17.1582 15.3733L17.1512 15.3664L16.8859 15.6313ZM13.331 12.0715L13.0626 12.3334L13.0657 12.3365L13.331 12.0715ZM16.8681 16.2454L16.6042 15.979L16.6028 15.9804L16.8681 16.2454ZM16.246 16.8684L15.9807 16.6034L15.9796 16.6045L16.246 16.8684ZM15.615 16.8684L15.8815 16.6045L15.8804 16.6034L15.615 16.8684ZM12.0601 13.3085L11.7947 13.5734L11.7948 13.5735L12.0601 13.3085ZM11.7935 12.9881L12.1022 12.7752L12.0981 12.7692L12.0937 12.7633L11.7935 12.9881ZM11.127 12.0982L11.4271 11.8734L11.1951 11.5636L10.8928 11.8053L11.127 12.0982ZM7.24327 13.4598L7.24338 13.0848L7.24196 13.0848L7.24327 13.4598ZM1.15795 8.62231L0.792409 8.70601L1.15795 8.62231ZM4.53098 1.61326L4.3686 1.27523L4.53098 1.61326ZM12.101 3.36555L11.8067 3.59799L12.101 3.36555ZM12.0601 11.1459L11.7683 10.9104L11.5146 11.2248L11.847 11.4544L12.0601 11.1459ZM12.9489 11.76L12.7356 12.0687L12.7465 12.0757L12.9489 11.76ZM10.3855 10.3756L10.6509 10.6406H10.6509L10.3855 10.3756ZM17.1512 15.3664L13.5964 11.8065L13.0657 12.3365L16.6206 15.8963L17.1512 15.3664ZM17.132 16.5118C17.4429 16.2039 17.4573 15.706 17.1648 15.3806L16.607 15.882C16.6321 15.9099 16.6308 15.9527 16.6042 15.979L17.132 16.5118ZM16.5114 17.1334L17.1335 16.5104L16.6028 15.9804L15.9807 16.6034L16.5114 17.1334ZM15.9305 17.375C16.1492 17.375 16.3586 17.2876 16.5125 17.1323L15.9796 16.6045C15.9665 16.6177 15.9488 16.625 15.9305 16.625V17.375ZM15.3486 17.1323C15.5024 17.2876 15.7119 17.375 15.9305 17.375V16.625C15.9122 16.625 15.8945 16.6177 15.8815 16.6045L15.3486 17.1323ZM11.7948 13.5735L15.3497 17.1334L15.8804 16.6034L12.3255 13.0436L11.7948 13.5735ZM11.4848 13.2011C11.5767 13.3343 11.6804 13.4589 11.7947 13.5734L12.3256 13.0437C12.2432 12.9611 12.1685 12.8713 12.1022 12.7752L11.4848 13.2011ZM10.8268 12.323L11.4934 13.2129L12.0937 12.7633L11.4271 11.8734L10.8268 12.323ZM7.24316 13.8348C8.7397 13.8353 10.1919 13.3261 11.3612 12.3911L10.8928 11.8053C9.8564 12.634 8.5695 13.0852 7.24338 13.0848L7.24316 13.8348ZM0.792409 8.70601C1.48138 11.7153 4.16064 13.8455 7.24457 13.8348L7.24196 13.0848C4.50941 13.0943 2.13435 11.2067 1.52349 8.53862L0.792409 8.70601ZM4.3686 1.27523C1.58827 2.61083 0.103455 5.69684 0.792409 8.70601L1.52349 8.53862C0.912613 5.87046 2.22935 3.13492 4.69335 1.95128L4.3686 1.27523ZM12.3953 3.13312C10.4825 0.711327 7.14908 -0.0604341 4.3686 1.27523L4.69335 1.95128C7.15721 0.767709 10.1113 1.45136 11.8067 3.59799L12.3953 3.13312ZM12.352 11.3814C14.29 8.98009 14.308 5.55475 12.3953 3.13312L11.8067 3.59799C13.5023 5.74478 13.4864 8.78162 11.7683 10.9104L12.352 11.3814ZM13.162 11.4515L12.2733 10.8374L11.847 11.4544L12.7357 12.0685L13.162 11.4515ZM13.5994 11.8096C13.4644 11.6712 13.314 11.5486 13.1512 11.4443L12.7465 12.0757C12.8613 12.1493 12.9673 12.2357 13.0626 12.3334L13.5994 11.8096ZM7.24344 11.3039C4.99692 11.3039 3.17487 9.48005 3.17487 7.2291H2.42487C2.42487 9.89327 4.58172 12.0539 7.24344 12.0539V11.3039ZM10.1202 10.1106C9.35712 10.8747 8.32232 11.3039 7.24344 11.3039V12.0539C8.52157 12.0539 9.74725 11.5454 10.6509 10.6406L10.1202 10.1106ZM11.312 7.2291C11.312 8.30997 10.8832 9.34647 10.1202 10.1106L10.6509 10.6406C11.5545 9.7357 12.062 8.50855 12.062 7.2291H11.312ZM7.24344 3.1543C9.48995 3.1543 11.312 4.97815 11.312 7.2291H12.062C12.062 4.56493 9.90515 2.4043 7.24344 2.4043V3.1543ZM3.17487 7.2291C3.17487 4.97815 4.99692 3.1543 7.24344 3.1543V2.4043C4.58172 2.4043 2.42487 4.56493 2.42487 7.2291H3.17487Z" fill="white"/>
</svg>
