<svg width="24" height="25" viewBox="0 0 24 25" fill="none" xmlns="http://www.w3.org/2000/svg">
<mask id="mask0_2097_14129" style="mask-type:luminance" maskUnits="userSpaceOnUse" x="2" y="2" width="20" height="22">
<path fill-rule="evenodd" clip-rule="evenodd" d="M2 2.5H21.2849V23.221H2V2.5Z" fill="white"/>
</mask>
<g mask="url(#mask0_2097_14129)">
<path fill-rule="evenodd" clip-rule="evenodd" d="M7.2022 17.94C7.4312 17.94 7.6602 17.969 7.8842 18.029C8.5602 18.211 9.1472 18.663 9.4952 19.27C9.7212 19.651 9.8462 20.096 9.8502 20.55C9.8502 21.2 10.3722 21.721 11.0142 21.721H12.2672C12.9062 21.721 13.4282 21.203 13.4312 20.564C13.4272 19.858 13.7032 19.187 14.2082 18.682C14.7062 18.184 15.4022 17.885 16.0982 17.905C16.5542 17.916 16.9932 18.039 17.3802 18.259C17.9372 18.578 18.6482 18.388 18.9702 17.838L19.6342 16.731C19.7822 16.476 19.8252 16.156 19.7462 15.861C19.6682 15.566 19.4722 15.31 19.2082 15.159C18.5902 14.803 18.1492 14.229 17.9662 13.541C17.7852 12.866 17.8842 12.129 18.2372 11.522C18.4672 11.122 18.8042 10.785 19.2082 10.553C19.7502 10.236 19.9402 9.527 19.6252 8.975C19.6122 8.953 19.6002 8.93 19.5902 8.906L19.0042 7.89C18.6852 7.335 17.9752 7.144 17.4182 7.461C16.8162 7.817 16.1002 7.919 15.4122 7.738C14.7252 7.56 14.1492 7.125 13.7902 6.511C13.5602 6.127 13.4352 5.68 13.4312 5.225C13.4402 4.883 13.3202 4.576 13.1022 4.351C12.8852 4.127 12.5802 4 12.2672 4H11.0142C10.7042 4 10.4142 4.121 10.1952 4.339C9.9772 4.558 9.8582 4.849 9.8602 5.159C9.8392 6.621 8.6442 7.798 7.1972 7.798C6.7332 7.793 6.2862 7.668 5.8982 7.436C5.3532 7.126 4.6412 7.317 4.3222 7.872L3.6452 8.985C3.3352 9.523 3.5252 10.234 4.0772 10.555C4.8962 11.029 5.4072 11.913 5.4072 12.861C5.4072 13.809 4.8962 14.692 4.0752 15.167C3.5262 15.485 3.3362 16.192 3.6542 16.742L4.2852 17.83C4.4412 18.111 4.6962 18.314 4.9912 18.397C5.2852 18.479 5.6092 18.444 5.8792 18.294C6.2762 18.061 6.7382 17.94 7.2022 17.94ZM12.2672 23.221H11.0142C9.5452 23.221 8.3502 22.027 8.3502 20.558C8.3482 20.377 8.2962 20.189 8.1992 20.026C8.0422 19.752 7.7882 19.556 7.4952 19.478C7.2042 19.4 6.8852 19.443 6.6232 19.595C5.9952 19.945 5.2562 20.03 4.5802 19.84C3.9052 19.649 3.3222 19.185 2.9802 18.57L2.3552 17.493C1.6242 16.225 2.0592 14.6 3.3252 13.868C3.6842 13.661 3.9072 13.275 3.9072 12.861C3.9072 12.447 3.6842 12.06 3.3252 11.853C2.0582 11.117 1.6242 9.488 2.3542 8.22L3.0322 7.107C3.7532 5.853 5.3832 5.411 6.6542 6.141C6.8272 6.244 7.0152 6.296 7.2062 6.298C7.8292 6.298 8.3502 5.784 8.3602 5.152C8.3562 4.455 8.6312 3.786 9.1322 3.281C9.6352 2.777 10.3032 2.5 11.0142 2.5H12.2672C12.9832 2.5 13.6792 2.794 14.1782 3.305C14.6762 3.819 14.9512 4.524 14.9302 5.239C14.9322 5.4 14.9852 5.586 15.0812 5.749C15.2402 6.019 15.4912 6.209 15.7892 6.287C16.0872 6.361 16.3992 6.321 16.6642 6.164C17.9442 5.433 19.5732 5.871 20.3042 7.141L20.9272 8.22C20.9432 8.249 20.9572 8.277 20.9692 8.306C21.6312 9.557 21.1892 11.132 19.9592 11.851C19.7802 11.954 19.6352 12.098 19.5352 12.272C19.3802 12.541 19.3372 12.861 19.4152 13.155C19.4952 13.455 19.6862 13.704 19.9552 13.858C20.5622 14.207 21.0152 14.795 21.1962 15.474C21.3772 16.152 21.2782 16.888 20.9252 17.495L20.2612 18.601C19.5302 19.857 17.9012 20.292 16.6342 19.56C16.4652 19.463 16.2702 19.41 16.0762 19.405H16.0702C15.7812 19.405 15.4842 19.528 15.2682 19.743C15.0492 19.962 14.9292 20.254 14.9312 20.564C14.9242 22.033 13.7292 23.221 12.2672 23.221Z" fill="black"/>
</g>
<path fill-rule="evenodd" clip-rule="evenodd" d="M11.6452 10.9746C10.6052 10.9746 9.75916 11.8216 9.75916 12.8616C9.75916 13.9016 10.6052 14.7466 11.6452 14.7466C12.6852 14.7466 13.5312 13.9016 13.5312 12.8616C13.5312 11.8216 12.6852 10.9746 11.6452 10.9746ZM11.6452 16.2466C9.77816 16.2466 8.25916 14.7286 8.25916 12.8616C8.25916 10.9946 9.77816 9.47461 11.6452 9.47461C13.5122 9.47461 15.0312 10.9946 15.0312 12.8616C15.0312 14.7286 13.5122 16.2466 11.6452 16.2466Z" fill="black"/>
</svg>
