<svg width="24" height="25" viewBox="0 0 24 25" fill="none" xmlns="http://www.w3.org/2000/svg">
<path fill-rule="evenodd" clip-rule="evenodd" d="M6.32772 8.8474L6.93072 16.0194C6.97472 16.5714 7.42572 16.9854 7.97672 16.9854H7.98072H18.8917H18.8937C19.4147 16.9854 19.8597 16.5974 19.9337 16.0824L20.8837 9.5234C20.9057 9.3674 20.8667 9.2114 20.7717 9.0854C20.6777 8.9584 20.5397 8.8764 20.3837 8.8544C20.1747 8.8624 11.5017 8.8504 6.32772 8.8474ZM7.97472 18.4854C6.65772 18.4854 5.54272 17.4574 5.43572 16.1424L4.51972 5.2484L3.01272 4.9884C2.60372 4.9164 2.33072 4.5294 2.40072 4.1204C2.47272 3.7114 2.86772 3.4454 3.26772 3.5094L5.34772 3.8694C5.68272 3.9284 5.93772 4.2064 5.96672 4.5464L6.20172 7.3474C20.4777 7.3534 20.5237 7.3604 20.5927 7.3684C21.1497 7.4494 21.6397 7.7404 21.9737 8.1884C22.3077 8.6354 22.4477 9.1864 22.3677 9.7384L21.4187 16.2964C21.2397 17.5444 20.1557 18.4854 18.8957 18.4854H18.8907H7.98272H7.97472Z" fill="black"/>
<path fill-rule="evenodd" clip-rule="evenodd" d="M17.2876 12.5437H14.5156C14.1006 12.5437 13.7656 12.2077 13.7656 11.7937C13.7656 11.3797 14.1006 11.0437 14.5156 11.0437H17.2876C17.7016 11.0437 18.0376 11.3797 18.0376 11.7937C18.0376 12.2077 17.7016 12.5437 17.2876 12.5437Z" fill="black"/>
<path fill-rule="evenodd" clip-rule="evenodd" d="M7.54451 21.2019C7.84551 21.2019 8.08851 21.4449 8.08851 21.7459C8.08851 22.0469 7.84551 22.2909 7.54451 22.2909C7.24251 22.2909 6.99951 22.0469 6.99951 21.7459C6.99951 21.4449 7.24251 21.2019 7.54451 21.2019Z" fill="black"/>
<mask id="mask0_1026_3420" style="mask-type:luminance" maskUnits="userSpaceOnUse" x="6" y="21" width="3" height="2">
<path fill-rule="evenodd" clip-rule="evenodd" d="M6.99902 21.7455C6.99902 22.0475 7.24202 22.2915 7.54502 22.2915C7.84602 22.2915 8.08902 22.0475 8.08902 21.7455C8.08902 21.4445 7.84602 21.2015 7.54502 21.2015C7.24202 21.2015 6.99902 21.4445 6.99902 21.7455Z" fill="white"/>
</mask>
<g mask="url(#mask0_1026_3420)">
<path fill-rule="evenodd" clip-rule="evenodd" d="M2 27.2905H13.089V16.2015H2V27.2905Z" fill="black"/>
</g>
<path fill-rule="evenodd" clip-rule="evenodd" d="M7.54351 21.5408C7.43051 21.5408 7.33851 21.6328 7.33851 21.7458C7.33851 21.9728 7.74951 21.9728 7.74951 21.7458C7.74951 21.6328 7.65651 21.5408 7.54351 21.5408ZM7.54351 23.0408C6.82951 23.0408 6.24951 22.4598 6.24951 21.7458C6.24951 21.0318 6.82951 20.4518 7.54351 20.4518C8.25751 20.4518 8.83851 21.0318 8.83851 21.7458C8.83851 22.4598 8.25751 23.0408 7.54351 23.0408Z" fill="black"/>
<path fill-rule="evenodd" clip-rule="evenodd" d="M18.8248 21.2019C19.1258 21.2019 19.3698 21.4449 19.3698 21.7459C19.3698 22.0469 19.1258 22.2909 18.8248 22.2909C18.5228 22.2909 18.2798 22.0469 18.2798 21.7459C18.2798 21.4449 18.5228 21.2019 18.8248 21.2019Z" fill="black"/>
<mask id="mask1_1026_3420" style="mask-type:luminance" maskUnits="userSpaceOnUse" x="18" y="21" width="2" height="2">
<path fill-rule="evenodd" clip-rule="evenodd" d="M18.28 21.7455C18.28 22.0475 18.523 22.2915 18.825 22.2915C19.125 22.2915 19.37 22.0475 19.37 21.7455C19.37 21.4445 19.125 21.2015 18.825 21.2015C18.523 21.2015 18.28 21.4445 18.28 21.7455Z" fill="white"/>
</mask>
<g mask="url(#mask1_1026_3420)">
<path fill-rule="evenodd" clip-rule="evenodd" d="M13.28 27.2905H24.37V16.2015H13.28V27.2905Z" fill="black"/>
</g>
<path fill-rule="evenodd" clip-rule="evenodd" d="M18.8238 21.5408C18.7118 21.5408 18.6198 21.6328 18.6198 21.7458C18.6208 21.9748 19.0308 21.9728 19.0298 21.7458C19.0298 21.6328 18.9368 21.5408 18.8238 21.5408ZM18.8238 23.0408C18.1098 23.0408 17.5298 22.4598 17.5298 21.7458C17.5298 21.0318 18.1098 20.4518 18.8238 20.4518C19.5388 20.4518 20.1198 21.0318 20.1198 21.7458C20.1198 22.4598 19.5388 23.0408 18.8238 23.0408Z" fill="black"/>
</svg>
