<svg width="24" height="25" viewBox="0 0 24 25" fill="none" xmlns="http://www.w3.org/2000/svg">
<path fill-rule="evenodd" clip-rule="evenodd" d="M11.7769 13.9655C11.1079 13.9655 10.4409 13.7445 9.88286 13.3025L5.39786 9.68648C5.07486 9.42648 5.02486 8.95348 5.28386 8.63148C5.54486 8.31048 6.01686 8.25948 6.33886 8.51848L10.8199 12.1305C11.3829 12.5765 12.1759 12.5765 12.7429 12.1265L17.1789 8.52048C17.5009 8.25748 17.9729 8.30748 18.2349 8.62948C18.4959 8.95048 18.4469 9.42248 18.1259 9.68448L13.6819 13.2965C13.1199 13.7425 12.4479 13.9655 11.7769 13.9655Z" fill="black"/>
<mask id="mask0_2113_2910" style="mask-type:luminance" maskUnits="userSpaceOnUse" x="1" y="2" width="22" height="20">
<path fill-rule="evenodd" clip-rule="evenodd" d="M1 2.5H22.4999V22H1V2.5Z" fill="white"/>
</mask>
<g mask="url(#mask0_2113_2910)">
<path fill-rule="evenodd" clip-rule="evenodd" d="M6.83888 20.5H16.6589C16.6609 20.498 16.6689 20.5 16.6749 20.5C17.8159 20.5 18.8279 20.092 19.6039 19.317C20.5049 18.42 20.9999 17.131 20.9999 15.688V8.82C20.9999 6.027 19.1739 4 16.6589 4H6.84088C4.32588 4 2.49988 6.027 2.49988 8.82V15.688C2.49988 17.131 2.99588 18.42 3.89588 19.317C4.67188 20.092 5.68488 20.5 6.82488 20.5H6.83888ZM6.82188 22C5.27888 22 3.90088 21.44 2.83688 20.38C1.65188 19.198 0.999878 17.532 0.999878 15.688V8.82C0.999878 5.217 3.51088 2.5 6.84088 2.5H16.6589C19.9889 2.5 22.4999 5.217 22.4999 8.82V15.688C22.4999 17.532 21.8479 19.198 20.6629 20.38C19.5999 21.439 18.2209 22 16.6749 22H16.6589H6.84088H6.82188Z" fill="black"/>
</g>
</svg>
