<svg width="20" height="22" viewBox="0 0 20 22" fill="none" xmlns="http://www.w3.org/2000/svg">
<path d="M14.8218 4.1344C14.0887 3.29394 13.648 2.19805 13.648 1H12.7294M14.8218 4.1344C15.4899 4.90063 16.3945 5.45788 17.4246 5.67608C17.7447 5.74574 18.0787 5.78293 18.4267 5.78293V9.2191C16.6451 9.2191 14.9933 8.64801 13.6478 7.68211V14.6707C13.6478 18.1627 10.8083 21 7.32392 21C5.50049 21 3.8534 20.2198 2.69812 18.98C1.64492 17.847 1 16.3331 1 14.6707C1 11.2298 3.75598 8.42509 7.17079 8.35079M14.8218 4.1344C14.804 4.12276 14.7862 4.11101 14.7685 4.09914M4.98556 16.3517C4.64223 15.8781 4.43808 15.2977 4.43808 14.6661C4.43808 13.0734 5.73255 11.7778 7.324 11.7778C7.62093 11.7778 7.90856 11.8288 8.17766 11.9124V8.40192C7.89927 8.36473 7.61628 8.34149 7.324 8.34149C7.27293 8.34149 6.86183 8.36884 6.81079 8.36884M12.7245 1H10.2098L10.2052 14.7775C10.1495 16.3192 8.87816 17.5591 7.32392 17.5591C6.35884 17.5591 5.50977 17.0808 4.98085 16.3564" stroke="black" stroke-width="2" stroke-linejoin="round"/>
</svg>
