<svg width="45" height="45" viewBox="0 0 45 45" fill="none" xmlns="http://www.w3.org/2000/svg">
<mask id="mask0_911_12807" style="mask-type:luminance" maskUnits="userSpaceOnUse" x="3" y="16" width="39" height="27">
<path fill-rule="evenodd" clip-rule="evenodd" d="M3.75073 16.4883H41.25V42.2583H3.75073V16.4883Z" fill="white"/>
</mask>
<g mask="url(#mask0_911_12807)">
<path fill-rule="evenodd" clip-rule="evenodd" d="M32.9351 42.2583H12.0664C7.48198 42.2583 3.75073 38.5289 3.75073 33.9427V24.802C3.75073 20.2177 7.48198 16.4883 12.0664 16.4883H13.8157C14.592 16.4883 15.222 17.1183 15.222 17.8945C15.222 18.6708 14.592 19.3008 13.8157 19.3008H12.0664C9.03073 19.3008 6.56323 21.7683 6.56323 24.802V33.9427C6.56323 36.9783 9.03073 39.4458 12.0664 39.4458H32.9351C35.9689 39.4458 38.4382 36.9783 38.4382 33.9427V24.7852C38.4382 21.7608 35.9782 19.3008 32.9557 19.3008H31.1876C30.4114 19.3008 29.7814 18.6708 29.7814 17.8945C29.7814 17.1183 30.4114 16.4883 31.1876 16.4883H32.9557C37.5289 16.4883 41.2507 20.2102 41.2507 24.7852V33.9427C41.2507 38.5289 37.5195 42.2583 32.9351 42.2583Z" fill="black"/>
</g>
<mask id="mask1_911_12807" style="mask-type:luminance" maskUnits="userSpaceOnUse" x="21" y="3" width="3" height="27">
<path fill-rule="evenodd" clip-rule="evenodd" d="M21.0938 3.75H23.9062V29.1392H21.0938V3.75Z" fill="white"/>
</mask>
<g mask="url(#mask1_911_12807)">
<path fill-rule="evenodd" clip-rule="evenodd" d="M22.5 29.1394C21.7237 29.1394 21.0938 28.5094 21.0938 27.7331V5.15625C21.0938 4.38 21.7237 3.75 22.5 3.75C23.2763 3.75 23.9062 4.38 23.9062 5.15625V27.7331C23.9062 28.5094 23.2763 29.1394 22.5 29.1394Z" fill="black"/>
</g>
<path fill-rule="evenodd" clip-rule="evenodd" d="M17.0343 12.0537C16.6762 12.0537 16.3162 11.9168 16.0425 11.643C15.4931 11.0955 15.4893 10.2068 16.0387 9.65555L21.5043 4.16555C22.0312 3.63492 22.9687 3.63492 23.4956 4.16555L28.9631 9.65555C29.5106 10.2068 29.5087 11.0955 28.9593 11.643C28.4081 12.1905 27.5193 12.1905 26.9718 11.6393L22.5 7.15055L18.03 11.6393C17.7562 11.9168 17.3943 12.0537 17.0343 12.0537Z" fill="black"/>
</svg>
